<svg id="Layer_1" data-name="Layer 1" xmlns="http://www.w3.org/2000/svg" viewBox="0 0 43.36 43.37"><defs><style>.cls-1{fill:#e72529;}.cls-2{fill:#66318b;}</style></defs><title>Artboard 1</title><path class="cls-1" d="M11.82,21.68a9.86,9.86,0,0,1,16.84-7c.22.22.39.48.59.72V1.35A22.18,22.18,0,0,0,22.79,0H21.68A21.53,21.53,0,0,0,6.36,6.36a21.82,21.82,0,0,0-5.05,8l-.14.36c-.07.17-.14.35-.19.53l-.09.38c-.16.56-.32,1.12-.44,1.7l-.06.4c-.11.58-.21,1.16-.27,1.75A21.86,21.86,0,0,0,0,21.68a21.51,21.51,0,0,0,5.57,14.5L14,27.77A9.76,9.76,0,0,1,11.82,21.68Z"/><path class="cls-2" d="M31.53,0V21.48c0,.07,0,.14,0,.2s0,.09,0,.14v1h-.1a9.77,9.77,0,0,1-15.84,6.57L7.18,37.8A21.68,21.68,0,0,0,43.36,21.68V0Z"/></svg>