<?xml version="1.0" encoding="utf-8"?>
<!-- Generator: Adobe Illustrator 21.0.0, SVG Export Plug-In . SVG Version: 6.00 Build 0)  -->
<svg version="1.1" id="Layer_1" xmlns="http://www.w3.org/2000/svg" xmlns:xlink="http://www.w3.org/1999/xlink" x="0px" y="0px"
	 viewBox="0 0 64 64" style="enable-background:new 0 0 64 64;" xml:space="preserve">
<style type="text/css">
	.st0{display:none;}
	.st1{display:inline;}
	.st2{fill:#134563;}
	.st3{fill:#FFFFFF;}
</style>
<g class="st0">
	<g id="Icon-User" transform="translate(278.000000, 278.000000)" class="st1">
		<path id="Fill-57" class="st2" d="M-246-222.1c-13.2,0-23.9-10.7-23.9-23.9s10.7-23.9,23.9-23.9c13.2,0,23.9,10.7,23.9,23.9
			C-222.1-232.8-232.8-222.1-246-222.1L-246-222.1z M-246-267.3c-11.7,0-21.3,9.6-21.3,21.3c0,11.7,9.6,21.3,21.3,21.3
			s21.3-9.6,21.3-21.3C-224.7-257.7-234.3-267.3-246-267.3L-246-267.3z"/>
		<path id="Fill-58" class="st2" d="M-260-228.7l-2.4-1.1c0.7-1.7,2.9-2.6,5.4-3.7c2.4-1.1,5.4-2.4,5.4-4v-2.2
			c-0.9-0.7-2.3-2.3-2.5-4.6c-0.7-0.7-1.8-2-1.8-3.6c0-1,0.4-1.8,0.7-2.3c-0.2-1.1-0.6-3.3-0.6-5c0-5.5,3.8-9.1,9.8-9.1
			c1.7,0,3.8,0.5,4.9,1.7c2.7,0.5,4.9,3.7,4.9,7.4c0,2.4-0.4,4.4-0.7,5.3c0.3,0.5,0.6,1.2,0.6,2c0,1.9-0.9,3.1-1.8,3.7
			c-0.2,2.3-1.5,3.8-2.3,4.5v2.2c0,1.4,2.5,2.3,4.8,3.2c2.7,1,5.5,2,6.4,4.3l-2.5,0.9c-0.4-1.2-2.8-2-4.8-2.8
			c-3.1-1.1-6.6-2.4-6.6-5.6v-3.6l0.6-0.4c0.1,0,1.8-1.2,1.8-3.5v-0.9l0.8-0.3c0.1-0.1,0.9-0.5,0.9-1.7c0-0.4-0.3-0.8-0.4-0.9
			l-0.5-0.6l0.2-0.7c0,0,0.7-2.2,0.7-5.2c0-2.5-1.4-4.8-2.9-4.8h-0.8l-0.4-0.7c-0.3-0.5-1.5-1-3.1-1c-4.5,0-7.2,2.4-7.2,6.5
			c0,1.9,0.7,5,0.7,5l0.2,0.7l-0.5,0.5c0,0-0.4,0.5-0.4,1c0,0.7,0.9,1.6,1.3,2l0.5,0.4v0.7c0,2.2,1.9,3.4,1.9,3.4l0.6,0.4v3.6
			c0,3.3-3.7,5-7,6.4C-257.5-230.4-259.6-229.4-260-228.7"/>
	</g>
</g>
<path class="st3" d="M32.4,7H32c-0.8,0-1.6,0-2.4,0.1s-1.5,0.2-2.3,0.3c0,0,0,0-0.1,0c-4.7,0.9-9,3.2-12.6,6.5c0,0-0.1,0-0.1,0.1
	c-0.1,0.1-0.2,0.2-0.3,0.3c-2.6,2.6-4.6,5.7-5.8,9.2v0.1l-0.1,0.2C8.2,24,8.1,24.3,8,24.5L8,25c-0.2,0.6-0.4,1.3-0.5,2
	c0,0.1,0,0.2-0.1,0.5c-0.1,0.7-0.2,1.3-0.3,2C7,30.3,7,31.1,7,32c0,4.2,1,8.2,2.9,11.8c1.1,2.1,2.6,4.1,4.4,5.9l0.8,0.8l0,0
	C19.8,54.7,25.7,57,32,57c6.7,0,13-2.6,17.7-7.3S57,38.7,57,32V7H32.4z M39.8,32.8c0,0.5-0.1,0.9-0.3,1.4c0,0.1-0.1,0.3-0.1,0.4
	c-0.1,0.4-0.3,0.8-0.5,1.2c-0.1,0.1-0.1,0.3-0.2,0.4c-0.3,0.5-0.7,1-1.1,1.4c-3.1,3.1-8.1,3.1-11.2,0l0,0c-0.8-0.8-1.3-1.7-1.7-2.6
	c-1-2.4-0.7-5.1,0.7-7.3c0.3-0.4,0.6-0.9,1-1.2c3-3,8.2-3,11.2,0c0.4,0.4,0.7,0.8,1,1.2c0.1,0.2,0.2,0.4,0.4,0.7
	c0.1,0.2,0.3,0.4,0.4,0.7c0.1,0.3,0.2,0.7,0.3,1c0,0.1,0.1,0.3,0.1,0.4c0,0.2,0,0.4,0.1,0.6c0.1,0.5,0.1,1,0.1,1.5
	C39.9,32.6,39.8,32.7,39.8,32.8z M39.9,25.4c-0.2-0.2-0.4-0.5-0.6-0.7c-1.9-1.9-4.5-3-7.3-3c-2.7,0-5.3,1.1-7.3,3
	c-0.5,0.5-0.9,1-1.3,1.6c-0.1,0.2-0.2,0.4-0.3,0.6c-0.2,0.4-0.4,0.8-0.6,1.2c-0.1,0.2-0.2,0.5-0.2,0.7c-0.1,0.4-0.2,0.7-0.3,1.1
	c-0.1,0.3-0.1,0.5-0.1,0.8c0,0.4-0.1,0.7-0.1,1.1c0,0.3,0,0.5,0,0.8c0,0.4,0,0.7,0.1,1.1c0,0.3,0.1,0.5,0.2,0.8
	c0.1,0.4,0.2,0.7,0.3,1c0.1,0.3,0.2,0.5,0.3,0.8c0.2,0.3,0.3,0.7,0.5,1c0.1,0.3,0.3,0.5,0.5,0.7c0.1,0.1,0.2,0.3,0.3,0.4l-8.7,8.7
	C11.4,43,9.4,37.6,9.4,32c0-0.8,0-1.6,0.1-2.3c0.1-0.6,0.2-1.2,0.3-1.8l0.1-0.4c0.1-0.6,0.3-1.2,0.5-1.8l0.1-0.4
	c0-0.1,0.1-0.2,0.1-0.4c0-0.1,0-0.1,0.1-0.2l0.1-0.4c1.1-3.1,3-6,5.3-8.3c4.3-4.3,10-6.6,16-6.6h1.2c2.3,0.1,4.6,0.6,6.7,1.4v14.6
	H39.9z"/>
</svg>
